<svg width="22" height="22" viewBox="0 0 22 22" fill="none" xmlns="http://www.w3.org/2000/svg">
<path d="M16.4987 11.916V10.0827H20.1654V11.916H16.4987ZM17.5987 18.3327L14.6654 16.1327L15.7654 14.666L18.6987 16.866L17.5987 18.3327ZM15.7654 7.33268L14.6654 5.86602L17.5987 3.66602L18.6987 5.13268L15.7654 7.33268ZM4.58203 17.416V13.7493H3.66536C3.1612 13.7493 2.7296 13.5698 2.37057 13.2108C2.01155 12.8518 1.83203 12.4202 1.83203 11.916V10.0827C1.83203 9.57852 2.01155 9.14692 2.37057 8.78789C2.7296 8.42886 3.1612 8.24935 3.66536 8.24935H7.33203L11.9154 5.49935V16.4993L7.33203 13.7493H6.41536V17.416H4.58203ZM12.832 14.0702V7.92852C13.2445 8.29518 13.5768 8.74206 13.8289 9.26914C14.081 9.79622 14.207 10.373 14.207 10.9993C14.207 11.6257 14.081 12.2025 13.8289 12.7296C13.5768 13.2566 13.2445 13.7035 12.832 14.0702Z" fill="#4F4F4F"/>
</svg>
