<svg width="22" height="22" viewBox="0 0 22 22" fill="none" xmlns="http://www.w3.org/2000/svg">
<path d="M9.85302 4.25333L5.79219 2.24583C3.60135 1.17333 1.80469 2.26416 1.80469 4.66583V18.2692C1.80469 19.3142 2.67552 20.1667 3.73885 20.1667H10.5405C11.0447 20.1667 11.4572 19.7542 11.4572 19.25V6.79249C11.4572 5.82999 10.733 4.68416 9.85302 4.25333ZM8.22135 12.6042H5.04052C4.66469 12.6042 4.35302 12.2925 4.35302 11.9167C4.35302 11.5408 4.66469 11.2292 5.04052 11.2292H8.22135C8.59719 11.2292 8.90885 11.5408 8.90885 11.9167C8.90885 12.2925 8.60635 12.6042 8.22135 12.6042ZM8.22135 8.93749H5.04052C4.66469 8.93749 4.35302 8.62583 4.35302 8.24999C4.35302 7.87416 4.66469 7.56249 5.04052 7.56249H8.22135C8.59719 7.56249 8.90885 7.87416 8.90885 8.24999C8.90885 8.62583 8.60635 8.93749 8.22135 8.93749Z" fill="#4F4F4F"/>
<path d="M20.1654 16.5371V17.8754C20.1654 19.1404 19.1387 20.1671 17.8737 20.1671H13.7212C13.2262 20.1671 12.832 19.7729 12.832 19.2779V17.2979C13.8129 17.4171 14.8487 17.1329 15.5912 16.5371C16.2145 17.0413 17.012 17.3438 17.8829 17.3438C18.7354 17.3438 19.5329 17.0413 20.1654 16.5371Z" fill="#4F4F4F"/>
<path d="M20.1654 13.7957V13.8048C20.092 15.0057 19.1112 15.9682 17.8829 15.9682C16.6087 15.9682 15.5912 14.9323 15.5912 13.6765C15.5912 15.079 14.2987 16.2065 12.832 15.9223V10.9998C12.832 10.4132 13.3729 9.97315 13.9504 10.1015L15.5912 10.4682L16.0312 10.569L17.9012 10.9907C18.3504 11.0823 18.7629 11.2382 19.1204 11.4673C19.1204 11.4765 19.1295 11.4765 19.1295 11.4765C19.2212 11.5407 19.3129 11.614 19.3954 11.6965C19.817 12.1182 20.092 12.7323 20.1562 13.6307C20.1562 13.6857 20.1654 13.7407 20.1654 13.7957Z" fill="#4F4F4F"/>
</svg>
