<svg width="24" height="25" viewBox="0 0 24 25" fill="none" xmlns="http://www.w3.org/2000/svg">
<path d="M16.7502 4.06V2.5C16.7502 2.09 16.4102 1.75 16.0002 1.75C15.5902 1.75 15.2502 2.09 15.2502 2.5V4H8.75023V2.5C8.75023 2.09 8.41023 1.75 8.00023 1.75C7.59023 1.75 7.25023 2.09 7.25023 2.5V4.06C4.55023 4.31 3.24023 5.92 3.04023 8.31C3.02023 8.6 3.26023 8.84 3.54023 8.84H20.4602C20.7502 8.84 20.9902 8.59 20.9602 8.31C20.7602 5.92 19.4502 4.31 16.7502 4.06Z" fill="#202224"/>
<path d="M20 10.3398H4C3.45 10.3398 3 10.7898 3 11.3398V17.4998C3 20.4998 4.5 22.4998 8 22.4998H16C19.5 22.4998 21 20.4998 21 17.4998V11.3398C21 10.7898 20.55 10.3398 20 10.3398ZM9.21 18.7098C9.16 18.7498 9.11 18.7998 9.06 18.8298C9 18.8698 8.94 18.8998 8.88 18.9198C8.82 18.9498 8.76 18.9698 8.7 18.9798C8.63 18.9898 8.57 18.9998 8.5 18.9998C8.37 18.9998 8.24 18.9698 8.12 18.9198C7.99 18.8698 7.89 18.7998 7.79 18.7098C7.61 18.5198 7.5 18.2598 7.5 17.9998C7.5 17.7398 7.61 17.4798 7.79 17.2898C7.89 17.1998 7.99 17.1298 8.12 17.0798C8.3 16.9998 8.5 16.9798 8.7 17.0198C8.76 17.0298 8.82 17.0498 8.88 17.0798C8.94 17.0998 9 17.1298 9.06 17.1698C9.11 17.2098 9.16 17.2498 9.21 17.2898C9.39 17.4798 9.5 17.7398 9.5 17.9998C9.5 18.2598 9.39 18.5198 9.21 18.7098ZM9.21 15.2098C9.02 15.3898 8.76 15.4998 8.5 15.4998C8.24 15.4998 7.98 15.3898 7.79 15.2098C7.61 15.0198 7.5 14.7598 7.5 14.4998C7.5 14.2398 7.61 13.9798 7.79 13.7898C8.07 13.5098 8.51 13.4198 8.88 13.5798C9.01 13.6298 9.12 13.6998 9.21 13.7898C9.39 13.9798 9.5 14.2398 9.5 14.4998C9.5 14.7598 9.39 15.0198 9.21 15.2098ZM12.71 18.7098C12.52 18.8898 12.26 18.9998 12 18.9998C11.74 18.9998 11.48 18.8898 11.29 18.7098C11.11 18.5198 11 18.2598 11 17.9998C11 17.7398 11.11 17.4798 11.29 17.2898C11.66 16.9198 12.34 16.9198 12.71 17.2898C12.89 17.4798 13 17.7398 13 17.9998C13 18.2598 12.89 18.5198 12.71 18.7098ZM12.71 15.2098C12.66 15.2498 12.61 15.2898 12.56 15.3298C12.5 15.3698 12.44 15.3998 12.38 15.4198C12.32 15.4498 12.26 15.4698 12.2 15.4798C12.13 15.4898 12.07 15.4998 12 15.4998C11.74 15.4998 11.48 15.3898 11.29 15.2098C11.11 15.0198 11 14.7598 11 14.4998C11 14.2398 11.11 13.9798 11.29 13.7898C11.38 13.6998 11.49 13.6298 11.62 13.5798C11.99 13.4198 12.43 13.5098 12.71 13.7898C12.89 13.9798 13 14.2398 13 14.4998C13 14.7598 12.89 15.0198 12.71 15.2098ZM16.21 18.7098C16.02 18.8898 15.76 18.9998 15.5 18.9998C15.24 18.9998 14.98 18.8898 14.79 18.7098C14.61 18.5198 14.5 18.2598 14.5 17.9998C14.5 17.7398 14.61 17.4798 14.79 17.2898C15.16 16.9198 15.84 16.9198 16.21 17.2898C16.39 17.4798 16.5 17.7398 16.5 17.9998C16.5 18.2598 16.39 18.5198 16.21 18.7098ZM16.21 15.2098C16.16 15.2498 16.11 15.2898 16.06 15.3298C16 15.3698 15.94 15.3998 15.88 15.4198C15.82 15.4498 15.76 15.4698 15.7 15.4798C15.63 15.4898 15.56 15.4998 15.5 15.4998C15.24 15.4998 14.98 15.3898 14.79 15.2098C14.61 15.0198 14.5 14.7598 14.5 14.4998C14.5 14.2398 14.61 13.9798 14.79 13.7898C14.89 13.6998 14.99 13.6298 15.12 13.5798C15.3 13.4998 15.5 13.4798 15.7 13.5198C15.76 13.5298 15.82 13.5498 15.88 13.5798C15.94 13.5998 16 13.6298 16.06 13.6698C16.11 13.7098 16.16 13.7498 16.21 13.7898C16.39 13.9798 16.5 14.2398 16.5 14.4998C16.5 14.7598 16.39 15.0198 16.21 15.2098Z" fill="#202224"/>
</svg>
