<svg width="24" height="25" viewBox="0 0 24 25" fill="none" xmlns="http://www.w3.org/2000/svg">
<path d="M12 2.5C6.49 2.5 2 6.99 2 12.5C2 18.01 6.49 22.5 12 22.5C17.51 22.5 22 18.01 22 12.5C22 6.99 17.51 2.5 12 2.5ZM16.35 16.07C16.21 16.31 15.96 16.44 15.7 16.44C15.57 16.44 15.44 16.41 15.32 16.33L12.22 14.48C11.45 14.02 10.88 13.01 10.88 12.12V8.02C10.88 7.61 11.22 7.27 11.63 7.27C12.04 7.27 12.38 7.61 12.38 8.02V12.12C12.38 12.48 12.68 13.01 12.99 13.19L16.09 15.04C16.45 15.25 16.57 15.71 16.35 16.07Z" fill="#202224"/>
</svg>
