<svg width="22" height="22" viewBox="0 0 22 22" fill="none" xmlns="http://www.w3.org/2000/svg">
<path d="M8.2487 14.6654C8.75286 14.6654 9.18446 14.4859 9.54349 14.1268C9.90252 13.7678 10.082 13.3362 10.082 12.832C10.082 12.3279 9.90252 11.8963 9.54349 11.5372C9.18446 11.1782 8.75286 10.9987 8.2487 10.9987C7.74453 10.9987 7.31293 11.1782 6.95391 11.5372C6.59488 11.8963 6.41536 12.3279 6.41536 12.832C6.41536 13.3362 6.59488 13.7678 6.95391 14.1268C7.31293 14.4859 7.74453 14.6654 8.2487 14.6654ZM13.7487 14.6654C14.2529 14.6654 14.6845 14.4859 15.0435 14.1268C15.4025 13.7678 15.582 13.3362 15.582 12.832C15.582 12.3279 15.4025 11.8963 15.0435 11.5372C14.6845 11.1782 14.2529 10.9987 13.7487 10.9987C13.2445 10.9987 12.8129 11.1782 12.4539 11.5372C12.0949 11.8963 11.9154 12.3279 11.9154 12.832C11.9154 13.3362 12.0949 13.7678 12.4539 14.1268C12.8129 14.4859 13.2445 14.6654 13.7487 14.6654ZM10.9987 10.082C11.5029 10.082 11.9345 9.90252 12.2935 9.54349C12.6525 9.18446 12.832 8.75286 12.832 8.2487C12.832 7.74453 12.6525 7.31293 12.2935 6.95391C11.9345 6.59488 11.5029 6.41536 10.9987 6.41536C10.4945 6.41536 10.0629 6.59488 9.70391 6.95391C9.34488 7.31293 9.16536 7.74453 9.16536 8.2487C9.16536 8.75286 9.34488 9.18446 9.70391 9.54349C10.0629 9.90252 10.4945 10.082 10.9987 10.082ZM10.9987 20.1654C9.73064 20.1654 8.53898 19.9247 7.4237 19.4435C6.30842 18.9622 5.33828 18.3091 4.51328 17.4841C3.68828 16.6591 3.03516 15.689 2.55391 14.5737C2.07266 13.4584 1.83203 12.2668 1.83203 10.9987C1.83203 9.73064 2.07266 8.53898 2.55391 7.4237C3.03516 6.30842 3.68828 5.33828 4.51328 4.51328C5.33828 3.68828 6.30842 3.03516 7.4237 2.55391C8.53898 2.07266 9.73064 1.83203 10.9987 1.83203C12.2668 1.83203 13.4584 2.07266 14.5737 2.55391C15.689 3.03516 16.6591 3.68828 17.4841 4.51328C18.3091 5.33828 18.9622 6.30842 19.4435 7.4237C19.9247 8.53898 20.1654 9.73064 20.1654 10.9987C20.1654 12.2668 19.9247 13.4584 19.4435 14.5737C18.9622 15.689 18.3091 16.6591 17.4841 17.4841C16.6591 18.3091 15.689 18.9622 14.5737 19.4435C13.4584 19.9247 12.2668 20.1654 10.9987 20.1654Z" fill="#4F4F4F"/>
</svg>
