<svg width="20" height="20" viewBox="0 0 20 20" fill="none" xmlns="http://www.w3.org/2000/svg">
<path d="M10.832 12.8346C10.832 11.1062 10.832 10.2419 11.3812 9.70494C11.9304 9.16797 12.8143 9.16797 14.582 9.16797C16.3498 9.16797 17.2337 9.16797 17.7829 9.70494C18.332 10.2419 18.332 11.1062 18.332 12.8346V14.668C18.332 16.3965 18.332 17.2607 17.7829 17.7977C17.2337 18.3346 16.3498 18.3346 14.582 18.3346C12.8143 18.3346 11.9304 18.3346 11.3812 17.7977C10.832 17.2607 10.832 16.3965 10.832 14.668V12.8346Z" fill="#4F4F4F"/>
<path d="M1.66797 7.16797C1.66797 8.89645 1.66797 9.76069 2.21714 10.2977C2.76632 10.8346 3.6502 10.8346 5.41797 10.8346C7.18574 10.8346 8.06962 10.8346 8.61879 10.2977C9.16797 9.76069 9.16797 8.89645 9.16797 7.16797V5.33464C9.16797 3.60615 9.16797 2.74191 8.61879 2.20494C8.06962 1.66797 7.18574 1.66797 5.41797 1.66797C3.6502 1.66797 2.76632 1.66797 2.21714 2.20494C1.66797 2.74191 1.66797 3.60615 1.66797 5.33464V7.16797Z" fill="#4F4F4F"/>
<path d="M10.832 4.58464C10.832 3.67864 10.832 3.22564 10.9748 2.86831C11.1651 2.39186 11.5301 2.01333 11.9895 1.81598C12.3341 1.66797 12.7709 1.66797 13.6445 1.66797H15.5195C16.3932 1.66797 16.83 1.66797 17.1746 1.81598C17.634 2.01333 17.999 2.39186 18.1893 2.86831C18.332 3.22564 18.332 3.67864 18.332 4.58464C18.332 5.49063 18.332 5.94363 18.1893 6.30096C17.999 6.77741 17.634 7.15594 17.1746 7.35329C16.83 7.5013 16.3932 7.5013 15.5195 7.5013H13.6445C12.7709 7.5013 12.3341 7.5013 11.9895 7.35329C11.5301 7.15594 11.1651 6.77741 10.9748 6.30096C10.832 5.94363 10.832 5.49063 10.832 4.58464Z" fill="#4F4F4F"/>
<path d="M1.66797 15.4167C1.66797 16.3227 1.66797 16.7757 1.81069 17.133C2.001 17.6094 2.36601 17.988 2.82544 18.1853C3.17001 18.3333 3.60683 18.3333 4.48047 18.3333H6.35547C7.22911 18.3333 7.66593 18.3333 8.0105 18.1853C8.46993 17.988 8.83494 17.6094 9.02524 17.133C9.16797 16.7757 9.16797 16.3227 9.16797 15.4167C9.16797 14.5107 9.16797 14.0577 9.02524 13.7003C8.83494 13.2239 8.46993 12.8454 8.0105 12.648C7.66593 12.5 7.22911 12.5 6.35547 12.5H4.48047C3.60683 12.5 3.17001 12.5 2.82544 12.648C2.36601 12.8454 2.001 13.2239 1.81069 13.7003C1.66797 14.0577 1.66797 14.5107 1.66797 15.4167Z" fill="#4F4F4F"/>
</svg>
