<svg width="22" height="22" viewBox="0 0 22 22" fill="none" xmlns="http://www.w3.org/2000/svg">
<path d="M10.3142 7.40625V10.0279L9.38839 9.70708C8.92089 9.54208 8.63672 9.38625 8.63672 8.58875C8.63672 7.93792 9.12255 7.40625 9.71839 7.40625H10.3142Z" fill="#4F4F4F"/>
<path d="M13.365 13.4108C13.365 14.0617 12.8792 14.5933 12.2833 14.5933H11.6875V11.9717L12.6133 12.2925C13.0808 12.4575 13.365 12.6133 13.365 13.4108Z" fill="#4F4F4F"/>
<path d="M14.8395 1.83301H7.15786C3.8212 1.83301 1.83203 3.82217 1.83203 7.15884V14.8405C1.83203 18.1772 3.8212 20.1663 7.15786 20.1663H14.8395C18.1762 20.1663 20.1654 18.1772 20.1654 14.8405V7.15884C20.1654 3.82217 18.1762 1.83301 14.8395 1.83301ZM13.0704 10.9997C13.7854 11.2472 14.7387 11.7697 14.7387 13.4105C14.7387 14.8222 13.6387 15.968 12.282 15.968H11.6862V16.4997C11.6862 16.8755 11.3745 17.1872 10.9987 17.1872C10.6229 17.1872 10.3112 16.8755 10.3112 16.4997V15.968H9.9812C8.47786 15.968 7.2587 14.6938 7.2587 13.1355C7.2587 12.7597 7.5612 12.448 7.9462 12.448C8.32203 12.448 8.6337 12.7597 8.6337 13.1355C8.6337 13.9422 9.2387 14.593 9.9812 14.593H10.3112V11.4855L8.92703 10.9997C8.21203 10.7522 7.2587 10.2297 7.2587 8.58884C7.2587 7.17717 8.3587 6.03134 9.71536 6.03134H10.3112V5.49967C10.3112 5.12384 10.6229 4.81217 10.9987 4.81217C11.3745 4.81217 11.6862 5.12384 11.6862 5.49967V6.03134H12.0162C13.5195 6.03134 14.7387 7.30551 14.7387 8.86384C14.7387 9.23967 14.4362 9.55134 14.0512 9.55134C13.6754 9.55134 13.3637 9.23967 13.3637 8.86384C13.3637 8.05717 12.7587 7.40634 12.0162 7.40634H11.6862V10.5138L13.0704 10.9997Z" fill="#4F4F4F"/>
</svg>
