<svg width="42" height="42" viewBox="0 0 42 42" fill="none" xmlns="http://www.w3.org/2000/svg">
<circle cx="21" cy="21" r="21" fill="#F6F8FB"/>
<g clip-path="url(#clip0_1469_140282)">
<path d="M20.9987 14.3334C22.4715 14.3334 23.6654 13.1395 23.6654 11.6667C23.6654 10.1939 22.4715 9 20.9987 9C19.5259 9 18.332 10.1939 18.332 11.6667C18.332 13.1395 19.5259 14.3334 20.9987 14.3334Z" fill="#4F4F4F"/>
<path d="M20.9987 23.6654C22.4715 23.6654 23.6654 22.4715 23.6654 20.9987C23.6654 19.5259 22.4715 18.332 20.9987 18.332C19.5259 18.332 18.332 19.5259 18.332 20.9987C18.332 22.4715 19.5259 23.6654 20.9987 23.6654Z" fill="#4F4F4F"/>
<path d="M20.9987 33.0013C22.4715 33.0013 23.6654 31.8074 23.6654 30.3347C23.6654 28.8619 22.4715 27.668 20.9987 27.668C19.5259 27.668 18.332 28.8619 18.332 30.3347C18.332 31.8074 19.5259 33.0013 20.9987 33.0013Z" fill="#4F4F4F"/>
</g>
<defs>
<clipPath id="clip0_1469_140282">
<rect width="24" height="24" fill="white" transform="translate(9 9)"/>
</clipPath>
</defs>
</svg>
