<svg width="22" height="22" viewBox="0 0 22 22" fill="none" xmlns="http://www.w3.org/2000/svg">
<path d="M13.2917 16.4987C12.65 16.4987 12.1076 16.2772 11.6646 15.8341C11.2215 15.3911 11 14.8487 11 14.207C11 13.5654 11.2215 13.023 11.6646 12.5799C12.1076 12.1369 12.65 11.9154 13.2917 11.9154C13.9333 11.9154 14.4757 12.1369 14.9187 12.5799C15.3618 13.023 15.5833 13.5654 15.5833 14.207C15.5833 14.8487 15.3618 15.3911 14.9187 15.8341C14.4757 16.2772 13.9333 16.4987 13.2917 16.4987ZM4.58333 20.1654C4.07917 20.1654 3.64757 19.9858 3.28854 19.6268C2.92951 19.2678 2.75 18.8362 2.75 18.332V5.4987C2.75 4.99453 2.92951 4.56293 3.28854 4.20391C3.64757 3.84488 4.07917 3.66536 4.58333 3.66536H5.5V1.83203H7.33333V3.66536H14.6667V1.83203H16.5V3.66536H17.4167C17.9208 3.66536 18.3524 3.84488 18.7115 4.20391C19.0705 4.56293 19.25 4.99453 19.25 5.4987V18.332C19.25 18.8362 19.0705 19.2678 18.7115 19.6268C18.3524 19.9858 17.9208 20.1654 17.4167 20.1654H4.58333ZM4.58333 18.332H17.4167V9.16536H4.58333V18.332Z" fill="#4F4F4F"/>
</svg>
