<svg width="24" height="24" viewBox="0 0 24 24" fill="none" xmlns="http://www.w3.org/2000/svg">
<path d="M21.2714 9.18029C20.9814 8.72029 20.6714 8.29029 20.3514 7.89029C19.9814 7.42029 19.2814 7.38029 18.8614 7.80029L15.8614 10.8003C16.0814 11.4603 16.1214 12.2203 15.9214 13.0103C15.5714 14.4203 14.4314 15.5603 13.0214 15.9103C12.2314 16.1103 11.4714 16.0703 10.8114 15.8503C10.8114 15.8503 9.38141 17.2803 8.35141 18.3103C7.85141 18.8103 8.01141 19.6903 8.68141 19.9503C9.75141 20.3603 10.8614 20.5703 12.0014 20.5703C13.7814 20.5703 15.5114 20.0503 17.0914 19.0803C18.7014 18.0803 20.1514 16.6103 21.3214 14.7403C22.2714 13.2303 22.2214 10.6903 21.2714 9.18029Z" fill="#A7A7A7"/>
<path d="M14.0206 9.97965L9.98062 14.0196C9.47062 13.4996 9.14062 12.7796 9.14062 11.9996C9.14062 10.4296 10.4206 9.13965 12.0006 9.13965C12.7806 9.13965 13.5006 9.46965 14.0206 9.97965Z" fill="#A7A7A7"/>
<path d="M18.25 5.74969L14.86 9.13969C14.13 8.39969 13.12 7.95969 12 7.95969C9.76 7.95969 7.96 9.76969 7.96 11.9997C7.96 13.1197 8.41 14.1297 9.14 14.8597L5.76 18.2497H5.75C4.64 17.3497 3.62 16.1997 2.75 14.8397C1.75 13.2697 1.75 10.7197 2.75 9.14969C3.91 7.32969 5.33 5.89969 6.91 4.91969C8.49 3.95969 10.22 3.42969 12 3.42969C14.23 3.42969 16.39 4.24969 18.25 5.74969Z" fill="#A7A7A7"/>
<path d="M14.8581 12.0001C14.8581 13.5701 13.5781 14.8601 11.9981 14.8601C11.9381 14.8601 11.8881 14.8601 11.8281 14.8401L14.8381 11.8301C14.8581 11.8901 14.8581 11.9401 14.8581 12.0001Z" fill="#A7A7A7"/>
<path d="M21.7689 2.22988C21.4689 1.92988 20.9789 1.92988 20.6789 2.22988L2.22891 20.6899C1.92891 20.9899 1.92891 21.4799 2.22891 21.7799C2.37891 21.9199 2.56891 21.9999 2.76891 21.9999C2.96891 21.9999 3.15891 21.9199 3.30891 21.7699L21.7689 3.30988C22.0789 3.00988 22.0789 2.52988 21.7689 2.22988Z" fill="#A7A7A7"/>
</svg>
