<svg width="18" height="18" viewBox="0 0 18 18" fill="none" xmlns="http://www.w3.org/2000/svg">
<path d="M15.9375 6.86422C14.205 4.14172 11.67 2.57422 9 2.57422C7.665 2.57422 6.3675 2.96422 5.1825 3.69172C3.9975 4.42672 2.9325 5.49922 2.0625 6.86422C1.3125 8.04172 1.3125 9.95422 2.0625 11.1317C3.795 13.8617 6.33 15.4217 9 15.4217C10.335 15.4217 11.6325 15.0317 12.8175 14.3042C14.0025 13.5692 15.0675 12.4967 15.9375 11.1317C16.6875 9.96172 16.6875 8.04172 15.9375 6.86422ZM9 12.0317C7.32 12.0317 5.97 10.6742 5.97 9.00172C5.97 7.32922 7.32 5.97172 9 5.97172C10.68 5.97172 12.03 7.32922 12.03 9.00172C12.03 10.6742 10.68 12.0317 9 12.0317Z" fill="#4F4F4F"/>
<path d="M9.00078 6.85547C7.82328 6.85547 6.86328 7.81547 6.86328 9.00047C6.86328 10.178 7.82328 11.138 9.00078 11.138C10.1783 11.138 11.1458 10.178 11.1458 9.00047C11.1458 7.82297 10.1783 6.85547 9.00078 6.85547Z" fill="#4F4F4F"/>
</svg>
