<svg width="14" height="15" viewBox="0 0 14 15" fill="none" xmlns="http://www.w3.org/2000/svg">
<g clip-path="url(#clip0_11935_78432)">
<path d="M3.20703 5.06867V3.70833C3.20703 2.7435 3.9922 1.95833 4.95703 1.95833C5.92186 1.95833 6.70703 2.7435 6.70703 3.70833V4.875C6.7677 4.875 6.82486 4.889 6.88436 4.89483C7.33161 4.41386 7.58077 3.78178 7.58203 3.125C7.58203 2.42881 7.30547 1.76113 6.81319 1.26884C6.3209 0.776562 5.65322 0.5 4.95703 0.5C4.26084 0.5 3.59316 0.776562 3.10088 1.26884C2.60859 1.76113 2.33203 2.42881 2.33203 3.125C2.33203 3.89967 2.67386 4.588 3.20703 5.06867Z" fill="#A7A7A7"/>
<path d="M11.0833 6.91536C10.8513 6.91536 10.6287 7.00755 10.4646 7.17165C10.3005 7.33574 10.2083 7.5583 10.2083 7.79036V7.9362C10.2083 7.97488 10.193 8.01197 10.1656 8.03932C10.1383 8.06667 10.1012 8.08203 10.0625 8.08203C10.0238 8.08203 9.98673 8.06667 9.95938 8.03932C9.93203 8.01197 9.91667 7.97488 9.91667 7.9362V7.20703C9.91667 6.97497 9.82448 6.75241 9.66039 6.58831C9.49629 6.42422 9.27373 6.33203 9.04167 6.33203C8.8096 6.33203 8.58704 6.42422 8.42295 6.58831C8.25885 6.75241 8.16667 6.97497 8.16667 7.20703V7.9362C8.16667 7.97488 8.1513 8.01197 8.12395 8.03932C8.09661 8.06667 8.05951 8.08203 8.02083 8.08203C7.98216 8.08203 7.94506 8.06667 7.91771 8.03932C7.89037 8.01197 7.875 7.97488 7.875 7.9362V6.6237C7.875 6.39163 7.78281 6.16907 7.61872 6.00498C7.45463 5.84089 7.23207 5.7487 7 5.7487C6.76794 5.7487 6.54538 5.84089 6.38128 6.00498C6.21719 6.16907 6.125 6.39163 6.125 6.6237V7.9362C6.125 7.97488 6.10964 8.01197 6.08229 8.03932C6.05494 8.06667 6.01784 8.08203 5.97917 8.08203C5.94049 8.08203 5.9034 8.06667 5.87605 8.03932C5.8487 8.01197 5.83333 7.97488 5.83333 7.9362V3.70703C5.83333 3.47497 5.74115 3.25241 5.57705 3.08831C5.41296 2.92422 5.1904 2.83203 4.95833 2.83203C4.72627 2.83203 4.50371 2.92422 4.33962 3.08831C4.17552 3.25241 4.08333 3.47497 4.08333 3.70703V8.95703C4.00598 8.95703 3.93179 8.9263 3.87709 8.8716C3.8224 8.81691 3.79167 8.74272 3.79167 8.66537V7.4987H3.5035C2.54392 7.4987 1.74942 8.27336 1.75 9.23295C1.75292 12.3135 3.99525 14.4987 5.37425 14.4987H9.04167C9.42469 14.4987 9.80396 14.4233 10.1578 14.2767C10.5117 14.1301 10.8332 13.9153 11.1041 13.6444C11.3749 13.3736 11.5897 13.0521 11.7363 12.6982C11.8829 12.3443 11.9583 11.9651 11.9583 11.582V7.79036C11.9583 7.5583 11.8661 7.33574 11.7021 7.17165C11.538 7.00755 11.3154 6.91536 11.0833 6.91536Z" fill="#A7A7A7"/>
</g>
<defs>
<clipPath id="clip0_11935_78432">
<rect width="14" height="14" fill="white" transform="translate(0 0.5)"/>
</clipPath>
</defs>
</svg>
