<svg width="22" height="22" viewBox="0 0 22 22" fill="none" xmlns="http://www.w3.org/2000/svg">
<path d="M15.582 3.20801H6.41536C3.66536 3.20801 1.83203 4.58301 1.83203 7.79134V14.208C1.83203 17.4163 3.66536 18.7913 6.41536 18.7913H15.582C18.332 18.7913 20.1654 17.4163 20.1654 14.208V7.79134C20.1654 4.58301 18.332 3.20801 15.582 3.20801ZM5.72786 13.2913C5.72786 13.6672 5.4162 13.9788 5.04036 13.9788C4.66453 13.9788 4.35286 13.6672 4.35286 13.2913V8.70801C4.35286 8.33217 4.66453 8.02051 5.04036 8.02051C5.4162 8.02051 5.72786 8.33217 5.72786 8.70801V13.2913ZM10.9987 13.7497C9.47703 13.7497 8.2487 12.5213 8.2487 10.9997C8.2487 9.47801 9.47703 8.24967 10.9987 8.24967C12.5204 8.24967 13.7487 9.47801 13.7487 10.9997C13.7487 12.5213 12.5204 13.7497 10.9987 13.7497ZM17.6445 13.2913C17.6445 13.6672 17.3329 13.9788 16.957 13.9788C16.5812 13.9788 16.2695 13.6672 16.2695 13.2913V8.70801C16.2695 8.33217 16.5812 8.02051 16.957 8.02051C17.3329 8.02051 17.6445 8.33217 17.6445 8.70801V13.2913Z" fill="#4F4F4F"/>
</svg>
