<svg width="17" height="17" viewBox="0 0 17 17" fill="none" xmlns="http://www.w3.org/2000/svg">
<path d="M13.2806 4.9257C12.994 3.47904 11.9206 2.8457 10.4273 2.8457H4.57396C2.81396 2.8457 1.64062 3.7257 1.64062 5.77904V9.21237C1.64062 10.6924 2.24729 11.559 3.24729 11.9324C3.39396 11.9857 3.55396 12.0324 3.72062 12.059C3.98729 12.119 4.27396 12.1457 4.57396 12.1457H10.434C12.194 12.1457 13.3673 11.2657 13.3673 9.21237V5.77904C13.3673 5.4657 13.3406 5.1857 13.2806 4.9257ZM4.18729 8.49904C4.18729 8.77237 3.96062 8.99904 3.68729 8.99904C3.41396 8.99904 3.18729 8.77237 3.18729 8.49904V6.49904C3.18729 6.2257 3.41396 5.99904 3.68729 5.99904C3.96062 5.99904 4.18729 6.2257 4.18729 6.49904V8.49904ZM7.50062 9.25904C6.52729 9.25904 5.74062 8.47237 5.74062 7.49904C5.74062 6.5257 6.52729 5.73904 7.50062 5.73904C8.47396 5.73904 9.26062 6.5257 9.26062 7.49904C9.26062 8.47237 8.47396 9.25904 7.50062 9.25904ZM11.8073 8.49904C11.8073 8.77237 11.5806 8.99904 11.3073 8.99904C11.034 8.99904 10.8073 8.77237 10.8073 8.49904V6.49904C10.8073 6.2257 11.034 5.99904 11.3073 5.99904C11.5806 5.99904 11.8073 6.2257 11.8073 6.49904V8.49904Z" fill="#202224"/>
<path d="M15.3665 7.78084V11.2142C15.3665 13.2675 14.1932 14.1542 12.4265 14.1542H6.57318C6.07318 14.1542 5.62651 14.0808 5.23985 13.9342C4.92651 13.8208 4.65318 13.6542 4.43318 13.4408C4.31318 13.3275 4.40651 13.1475 4.57318 13.1475H10.4265C12.8932 13.1475 14.3598 11.6808 14.3598 9.22084V5.78084C14.3598 5.62084 14.5398 5.52084 14.6532 5.64084C15.1065 6.12084 15.3665 6.82084 15.3665 7.78084Z" fill="#202224"/>
</svg>
