<svg width="20" height="21" viewBox="0 0 20 21" fill="none" xmlns="http://www.w3.org/2000/svg">
<path fill-rule="evenodd" clip-rule="evenodd" d="M15.284 15.046C15.7859 14.6911 16.3853 14.5004 17 14.5C18.654 14.5 20 15.846 20 17.5C20 19.154 18.654 20.5 17 20.5C15.346 20.5 14 19.154 14 17.5C14.004 17.221 14.047 16.945 14.129 16.678L12.554 15.553C11.8413 16.1604 10.9365 16.4959 10 16.5C9.06353 16.4959 8.15874 16.1604 7.446 15.553L5.871 16.678C5.947 16.94 6 17.213 6 17.5C6 19.154 4.654 20.5 3 20.5C1.346 20.5 0 19.154 0 17.5C0 15.846 1.346 14.5 3 14.5C3.615 14.5 4.214 14.691 4.716 15.046L6.276 13.932C6.09636 13.4758 6.00279 12.9903 6 12.5C6 10.642 7.28 9.089 9 8.642V6.315C8.41669 6.10985 7.91123 5.72908 7.5531 5.22501C7.19497 4.72095 7.00175 4.11833 7 3.5C7 1.846 8.346 0.5 10 0.5C11.654 0.5 13 1.846 13 3.5C12.998 4.1184 12.8047 4.72104 12.4466 5.22522C12.0886 5.7294 11.5832 6.11042 11 6.316V8.642C12.72 9.089 14 10.642 14 12.5C13.997 12.99 13.904 13.476 13.724 13.932L15.284 15.046ZM16.321 18.192C16.4992 18.3784 16.7424 18.4887 17 18.5C17.2652 18.5 17.5196 18.3946 17.7071 18.2071C17.8946 18.0196 18 17.7652 18 17.5C18 17.2348 17.8946 16.9804 17.7071 16.7929C17.5196 16.6054 17.2652 16.5 17 16.5C16.8077 16.5081 16.6218 16.5715 16.4646 16.6827C16.3074 16.7939 16.1857 16.948 16.114 17.1267C16.0423 17.3053 16.0237 17.5009 16.0604 17.6899C16.0971 17.8788 16.1876 18.0532 16.321 18.192ZM2.321 18.192C2.49917 18.3784 2.74242 18.4887 3 18.5C3.26522 18.5 3.51957 18.3946 3.70711 18.2071C3.89464 18.0196 4 17.7652 4 17.5C4 17.2348 3.89464 16.9804 3.70711 16.7929C3.51957 16.6054 3.26522 16.5 3 16.5C2.80766 16.5081 2.62175 16.5715 2.46459 16.6827C2.30742 16.7939 2.18568 16.948 2.11399 17.1267C2.04229 17.3053 2.02369 17.5009 2.06041 17.6899C2.09713 17.8788 2.18762 18.0532 2.321 18.192ZM11 3.5C11 2.949 10.551 2.5 10 2.5C9.449 2.5 9 2.949 9 3.5C9 4.051 9.449 4.5 10 4.5C10.551 4.5 11 4.051 11 3.5Z" fill="#A7A7A7"/>
</svg>
