<svg width="26" height="26" viewBox="0 0 26 26" fill="none" xmlns="http://www.w3.org/2000/svg">
<path d="M21.8722 15.2315L20.648 13.1949C20.3771 12.7507 20.1388 11.8949 20.1388 11.3749V9.34904C20.1388 5.41654 16.943 2.2207 13.0213 2.2207C9.08882 2.23154 5.89298 5.41654 5.89298 9.34904V11.364C5.89298 11.884 5.65465 12.7399 5.39465 13.184L4.17048 15.2207C3.70465 16.0115 3.59632 16.9107 3.88882 17.6907C4.18132 18.4815 4.84215 19.1099 5.70882 19.3915C6.87882 19.7815 8.05965 20.0632 9.26215 20.269C9.38132 20.2907 9.50048 20.3015 9.61965 20.3232C9.77132 20.3449 9.93382 20.3665 10.0963 20.3882C10.378 20.4315 10.6596 20.464 10.9521 20.4857C11.6346 20.5507 12.328 20.5832 13.0213 20.5832C13.7038 20.5832 14.3863 20.5507 15.058 20.4857C15.3072 20.464 15.5563 20.4424 15.7947 20.4099C15.9897 20.3882 16.1847 20.3665 16.3797 20.334C16.4988 20.3232 16.618 20.3015 16.7372 20.2799C17.9505 20.0849 19.153 19.7815 20.323 19.3915C21.1572 19.1099 21.7963 18.4815 22.0996 17.6799C22.403 16.8674 22.3163 15.979 21.8722 15.2315ZM13.8122 10.8332C13.8122 11.2882 13.4438 11.6565 12.9888 11.6565C12.5338 11.6565 12.1655 11.2882 12.1655 10.8332V7.47487C12.1655 7.01987 12.5338 6.65154 12.9888 6.65154C13.4438 6.65154 13.8122 7.01987 13.8122 7.47487V10.8332Z" fill="#202224"/>
<path d="M16.0661 21.6778C15.6111 22.9345 14.4086 23.8337 13.0003 23.8337C12.1445 23.8337 11.2995 23.487 10.7036 22.8695C10.357 22.5445 10.097 22.1112 9.94531 21.667C10.0861 21.6887 10.227 21.6995 10.3786 21.7212C10.6278 21.7537 10.8878 21.7862 11.1478 21.8078C11.7653 21.862 12.3936 21.8945 13.022 21.8945C13.6395 21.8945 14.257 21.862 14.8636 21.8078C15.0911 21.7862 15.3186 21.7753 15.5353 21.7428C15.7086 21.7212 15.882 21.6995 16.0661 21.6778Z" fill="#202224"/>
</svg>
