<svg width="20" height="21" viewBox="0 0 20 21" fill="none" xmlns="http://www.w3.org/2000/svg">
<path d="M4.10156 9.91406C4.42517 9.91406 4.6875 9.65173 4.6875 9.32812C4.6875 9.00452 4.42517 8.74219 4.10156 8.74219C3.77796 8.74219 3.51562 9.00452 3.51562 9.32812C3.51562 9.65173 3.77796 9.91406 4.10156 9.91406Z" fill="#A7A7A7"/>
<path d="M8.78906 9.91406C9.11267 9.91406 9.375 9.65173 9.375 9.32812C9.375 9.00452 9.11267 8.74219 8.78906 8.74219C8.46546 8.74219 8.20312 9.00452 8.20312 9.32812C8.20312 9.65173 8.46546 9.91406 8.78906 9.91406Z" fill="#A7A7A7"/>
<path d="M17.6562 17.5312C17.6562 17.8593 17.3985 18.1172 17.0703 18.1172H14.7266C14.3984 18.1172 14.1406 17.8593 14.1406 17.5312C14.1406 17.2031 14.3984 16.9453 14.7266 16.9453H15.3125V4.05469H14.7266C14.3984 4.05469 14.1406 3.79684 14.1406 3.46875C14.1406 3.14059 14.3984 2.88281 14.7266 2.88281H17.0703C17.3985 2.88281 17.6562 3.14059 17.6562 3.46875C17.6562 3.79684 17.3985 4.05469 17.0703 4.05469H16.4844V16.9453H17.0703C17.3985 16.9453 17.6562 17.2031 17.6562 17.5312ZM18.2422 5.22656H17.6562V15.7734H18.2422C19.2149 15.7734 20 14.9882 20 14.0156V6.98438C20 6.01168 19.2149 5.22656 18.2422 5.22656ZM14.1406 5.22656H1.75781C0.786992 5.22656 0 6.01355 0 6.98438V14.0156C0 14.9864 0.786992 15.7734 1.75781 15.7734H14.1406V5.22656ZM5.71875 12.3515C5.44926 13.0078 4.80465 13.4297 4.10156 13.4297C3.39848 13.4297 2.75387 13.0078 2.48438 12.3515C2.35547 12.0586 2.49609 11.7188 2.78906 11.5898C3.09375 11.4609 3.43359 11.6016 3.56246 11.8945C3.75 12.3398 4.45309 12.3398 4.64062 11.8945C4.67574 11.7773 4.68746 11.4023 4.69922 10.9804C4.51168 11.039 4.31246 11.0859 4.10156 11.0859C3.12887 11.0859 2.34375 10.3007 2.34375 9.32812C2.34375 8.35543 3.12887 7.57031 4.10156 7.57031C5.0625 7.57031 5.84766 8.35543 5.85938 9.31641C5.85938 10.0266 5.9325 11.8656 5.71875 12.3515ZM8.78906 13.4297C8.08598 13.4297 7.44137 13.0078 7.17188 12.3515C7.04297 12.0586 7.18359 11.7188 7.47656 11.5898C7.78125 11.4609 8.12109 11.6016 8.24996 11.8945C8.4375 12.3398 9.14059 12.3398 9.32812 11.8945C9.36324 11.7773 9.37496 11.4023 9.38672 10.9804C9.19918 11.039 8.99996 11.0859 8.78906 11.0859C7.81637 11.0859 7.03125 10.3007 7.03125 9.32812C7.03125 8.35543 7.81637 7.57031 8.78906 7.57031C9.75 7.57031 10.5352 8.35543 10.5469 9.31641C10.5469 10.0266 10.62 11.8656 10.4062 12.3515C10.1368 13.0078 9.49215 13.4297 8.78906 13.4297Z" fill="#A7A7A7"/>
</svg>
