<svg width="24" height="24" viewBox="0 0 24 24" fill="none" xmlns="http://www.w3.org/2000/svg">
<path d="M14.9985 7.50498L7.18908 15.4456C6.93054 15.7309 6.79163 16.1048 6.80111 16.4897C6.81058 16.8746 6.96772 17.2412 7.23999 17.5134C7.51226 17.7857 7.8788 17.9429 8.26373 17.9523C8.64866 17.9618 9.02249 17.8229 9.30783 17.5644L18.6172 8.12373C19.1343 7.55306 19.4121 6.80539 19.3932 6.03553C19.3742 5.26568 19.0599 4.53259 18.5154 3.98806C17.9708 3.44352 17.2378 3.12924 16.4679 3.11028C15.698 3.09133 14.9504 3.36915 14.3797 3.88623L5.07033 13.3269C4.22744 14.1697 3.75391 15.313 3.75391 16.505C3.75391 17.697 4.22744 18.8402 5.07033 19.6831C5.91322 20.526 7.05643 20.9995 8.24845 20.9995C9.44048 20.9995 10.5837 20.526 11.4266 19.6831L19.1235 12.005" stroke="#4F4F4F" stroke-width="2" stroke-linecap="round" stroke-linejoin="round"/>
</svg>
