<svg width="22" height="22" viewBox="0 0 22 22" fill="none" xmlns="http://www.w3.org/2000/svg">
<path d="M10.944 2.02682L8.73479 7.16932H6.52563C6.15896 7.16932 5.80146 7.19682 5.45312 7.27015L6.36979 5.07015L6.40646 4.98765L6.46146 4.84098C6.48896 4.77682 6.50729 4.72182 6.53479 4.67598C7.59813 2.21015 8.78979 1.44015 10.944 2.02682Z" fill="#4F4F4F"/>
<path d="M17.1685 7.41443L17.1502 7.40526C16.6002 7.24943 16.041 7.16693 15.4727 7.16693H9.73438L11.7969 2.37276L11.8244 2.30859C11.9527 2.35443 12.0902 2.41859 12.2277 2.46443L14.2535 3.31693C15.381 3.78443 16.1694 4.27026 16.6552 4.85693C16.7377 4.96693 16.811 5.06776 16.8844 5.18693C16.9669 5.31526 17.031 5.44359 17.0677 5.58109C17.1044 5.66359 17.1319 5.73693 17.1502 5.81943C17.2877 6.28693 17.2969 6.81859 17.1685 7.41443Z" fill="#4F4F4F"/>
<path d="M11.4766 16.1879H11.7057C11.9807 16.1879 12.2099 15.9404 12.2099 15.6379C12.2099 15.2529 12.0999 15.1979 11.8616 15.1062L11.4766 14.9688V16.1879Z" fill="#4F4F4F"/>
<path d="M16.7672 8.7263C16.3547 8.60714 15.9239 8.54297 15.4747 8.54297H6.52802C5.90469 8.54297 5.31802 8.66214 4.76802 8.90047C3.17302 9.58797 2.05469 11.1738 2.05469 13.0163V14.8038C2.05469 15.0238 2.07302 15.2346 2.10052 15.4546C2.30219 18.3696 3.86052 19.928 6.77552 20.1205C6.98635 20.148 7.19719 20.1663 7.42635 20.1663H14.5764C17.968 20.1663 19.7555 18.553 19.9297 15.3446C19.9389 15.1705 19.948 14.9871 19.948 14.8038V13.0163C19.948 10.9905 18.6005 9.28547 16.7672 8.7263ZM12.1747 14.208C12.5964 14.3546 13.1647 14.6663 13.1647 15.638C13.1647 16.4721 12.5139 17.1413 11.7072 17.1413H11.478V17.343C11.478 17.6088 11.2672 17.8196 11.0014 17.8196C10.7355 17.8196 10.5247 17.6088 10.5247 17.343V17.1413H10.4422C9.56219 17.1413 8.83802 16.3988 8.83802 15.4821C8.83802 15.2163 9.04885 15.0055 9.31469 15.0055C9.58052 15.0055 9.79135 15.2163 9.79135 15.4821C9.79135 15.8671 10.0847 16.188 10.4422 16.188H10.5247V14.6388L9.82802 14.3913C9.40635 14.2446 8.83802 13.933 8.83802 12.9613C8.83802 12.1271 9.48885 11.458 10.2955 11.458H10.5247V11.2563C10.5247 10.9905 10.7355 10.7796 11.0014 10.7796C11.2672 10.7796 11.478 10.9905 11.478 11.2563V11.458H11.5605C12.4405 11.458 13.1647 12.2005 13.1647 13.1171C13.1647 13.383 12.9539 13.5938 12.688 13.5938C12.4222 13.5938 12.2114 13.383 12.2114 13.1171C12.2114 12.7321 11.918 12.4113 11.5605 12.4113H11.478V13.9605L12.1747 14.208Z" fill="#4F4F4F"/>
<path d="M9.78906 12.9602C9.78906 13.3452 9.89906 13.4002 10.1374 13.4918L10.5224 13.6293V12.4102H10.2932C10.0091 12.4102 9.78906 12.6577 9.78906 12.9602Z" fill="#4F4F4F"/>
</svg>
