<svg width="22" height="22" viewBox="0 0 22 22" fill="none" xmlns="http://www.w3.org/2000/svg">
<path d="M16.4987 2.75H5.4987C3.47286 2.75 1.83203 4.38167 1.83203 6.38917V15.6108C1.83203 17.6183 3.47286 19.25 5.4987 19.25H16.4987C18.5245 19.25 20.1654 17.6183 20.1654 15.6108V6.38917C20.1654 4.38167 18.5245 2.75 16.4987 2.75ZM7.79036 6.5725C8.95453 6.5725 9.90786 7.52583 9.90786 8.69C9.90786 9.85417 8.95453 10.8075 7.79036 10.8075C6.6262 10.8075 5.67286 9.85417 5.67286 8.69C5.67286 7.52583 6.6262 6.5725 7.79036 6.5725ZM11.3379 15.2717C11.2554 15.3633 11.127 15.4183 10.9987 15.4183H4.58203C4.4537 15.4183 4.32536 15.3633 4.24286 15.2717C4.16036 15.18 4.11453 15.0517 4.1237 14.9233C4.27953 13.3833 5.50786 12.1642 7.04786 12.0175C7.5337 11.9717 8.03786 11.9717 8.5237 12.0175C10.0637 12.1642 11.3012 13.3833 11.4479 14.9233C11.4662 15.0517 11.4204 15.18 11.3379 15.2717ZM17.4154 15.3542H15.582C15.2062 15.3542 14.8945 15.0425 14.8945 14.6667C14.8945 14.2908 15.2062 13.9792 15.582 13.9792H17.4154C17.7912 13.9792 18.1029 14.2908 18.1029 14.6667C18.1029 15.0425 17.7912 15.3542 17.4154 15.3542ZM17.4154 11.6875H13.7487C13.3729 11.6875 13.0612 11.3758 13.0612 11C13.0612 10.6242 13.3729 10.3125 13.7487 10.3125H17.4154C17.7912 10.3125 18.1029 10.6242 18.1029 11C18.1029 11.3758 17.7912 11.6875 17.4154 11.6875ZM17.4154 8.02083H12.832C12.4562 8.02083 12.1445 7.70917 12.1445 7.33333C12.1445 6.9575 12.4562 6.64583 12.832 6.64583H17.4154C17.7912 6.64583 18.1029 6.9575 18.1029 7.33333C18.1029 7.70917 17.7912 8.02083 17.4154 8.02083Z" fill="#4F4F4F"/>
</svg>
