<svg width="20" height="21" viewBox="0 0 20 21" fill="none" xmlns="http://www.w3.org/2000/svg">
<path d="M5.55964 12.168H3.33464C2.41797 12.168 1.66797 12.918 1.66797 13.8346V18.0013C1.66797 18.4596 2.04297 18.8346 2.5013 18.8346H5.55964C6.01797 18.8346 6.39297 18.4596 6.39297 18.0013V13.0013C6.39297 12.543 6.01797 12.168 5.55964 12.168Z" fill="#A7A7A7"/>
<path d="M11.1065 8.83203H8.88151C7.96484 8.83203 7.21484 9.58203 7.21484 10.4987V17.9987C7.21484 18.457 7.58984 18.832 8.04818 18.832H11.9398C12.3982 18.832 12.7732 18.457 12.7732 17.9987V10.4987C12.7732 9.58203 12.0315 8.83203 11.1065 8.83203Z" fill="#A7A7A7"/>
<path d="M16.6677 14.668H14.4427C13.9844 14.668 13.6094 15.043 13.6094 15.5013V18.0013C13.6094 18.4596 13.9844 18.8346 14.4427 18.8346H17.501C17.9594 18.8346 18.3344 18.4596 18.3344 18.0013V16.3346C18.3344 15.418 17.5844 14.668 16.6677 14.668Z" fill="#A7A7A7"/>
<path d="M12.5079 4.54271C12.7662 4.28437 12.8662 3.97604 12.7829 3.70937C12.6995 3.44271 12.4412 3.25104 12.0745 3.19271L11.2745 3.05938C11.2412 3.05938 11.1662 3.00104 11.1495 2.96771L10.7079 2.08438C10.3745 1.40937 9.61621 1.40937 9.28288 2.08438L8.84121 2.96771C8.83288 3.00104 8.75788 3.05938 8.72454 3.05938L7.92454 3.19271C7.55788 3.25104 7.30788 3.44271 7.21621 3.70937C7.13288 3.97604 7.23288 4.28437 7.49121 4.54271L8.10788 5.16771C8.14121 5.19271 8.16621 5.29271 8.15788 5.32604L7.98288 6.09271C7.84954 6.66771 8.06621 6.92604 8.20788 7.02604C8.34954 7.12604 8.65788 7.25938 9.16621 6.95938L9.91621 6.51771C9.94954 6.49271 10.0579 6.49271 10.0912 6.51771L10.8329 6.95938C11.0662 7.10104 11.2579 7.14271 11.4079 7.14271C11.5829 7.14271 11.7079 7.07604 11.7829 7.02604C11.9245 6.92604 12.1412 6.66771 12.0079 6.09271L11.8329 5.32604C11.8245 5.28438 11.8495 5.19271 11.8829 5.16771L12.5079 4.54271Z" fill="#A7A7A7"/>
</svg>
