<svg width="20" height="21" viewBox="0 0 20 21" fill="none" xmlns="http://www.w3.org/2000/svg">
<path d="M11.0817 7.2599L12.1817 9.4599C12.3317 9.7599 12.7317 10.0599 13.065 10.1099L15.0567 10.4432C16.3317 10.6599 16.6317 11.5766 15.715 12.4932L14.165 14.0516C13.9067 14.3099 13.7567 14.8182 13.84 15.1849L14.2817 17.1099C14.6317 18.6266 13.8233 19.2182 12.4817 18.4266L10.615 17.3182C10.2733 17.1182 9.72335 17.1182 9.38168 17.3182L7.50668 18.4182C6.16502 19.2099 5.35668 18.6182 5.70668 17.1016L6.14835 15.1766C6.23168 14.8182 6.08168 14.3099 5.82335 14.0432L4.28168 12.5016C3.36502 11.5849 3.66502 10.6599 4.94002 10.4516L6.93168 10.1182C7.26502 10.0599 7.66502 9.76823 7.81502 9.46823L8.91502 7.26823C9.50668 6.06823 10.49 6.06823 11.0817 7.2599Z" fill="#A7A7A7"/>
<path d="M5 8.6263C4.65833 8.6263 4.375 8.34297 4.375 8.0013V2.16797C4.375 1.8263 4.65833 1.54297 5 1.54297C5.34167 1.54297 5.625 1.8263 5.625 2.16797V8.0013C5.625 8.34297 5.34167 8.6263 5 8.6263Z" fill="#A7A7A7"/>
<path d="M15 8.6263C14.6583 8.6263 14.375 8.34297 14.375 8.0013V2.16797C14.375 1.8263 14.6583 1.54297 15 1.54297C15.3417 1.54297 15.625 1.8263 15.625 2.16797V8.0013C15.625 8.34297 15.3417 8.6263 15 8.6263Z" fill="#A7A7A7"/>
<path d="M10 4.45964C9.65833 4.45964 9.375 4.1763 9.375 3.83464V2.16797C9.375 1.8263 9.65833 1.54297 10 1.54297C10.3417 1.54297 10.625 1.8263 10.625 2.16797V3.83464C10.625 4.1763 10.3417 4.45964 10 4.45964Z" fill="#A7A7A7"/>
</svg>
