<svg width="21" height="21" viewBox="0 0 21 21" fill="none" xmlns="http://www.w3.org/2000/svg">
<path d="M9.93668 0.929561C7.55221 0.933558 5.26655 1.88256 3.58048 3.56863C1.8944 5.25471 0.945404 7.54037 0.941406 9.92484C0.943399 12.3113 1.89127 14.5997 3.57735 16.2886C5.26342 17.9775 7.55021 18.9292 9.93668 18.9352C12.0532 18.9352 14.0035 18.1907 15.5455 16.9585L19.291 20.7041C19.4808 20.8805 19.7315 20.9765 19.9906 20.972C20.2496 20.9674 20.4968 20.8627 20.6803 20.6797C20.8637 20.4968 20.9692 20.2498 20.9744 19.9908C20.9796 19.7317 20.8843 19.4807 20.7083 19.2905L16.9628 15.5412C18.242 13.9503 18.9394 11.9701 18.9395 9.92862C18.9395 4.96988 14.8954 0.929561 9.93668 0.929561ZM9.93668 2.93271C13.8145 2.93271 16.9364 6.05082 16.9364 9.92484C16.9364 13.7989 13.8145 16.9359 9.93668 16.9359C6.05889 16.9359 2.94078 13.8102 2.94078 9.9324C2.94078 6.0546 6.05889 2.93271 9.93668 2.93271Z" fill="#202224"/>
</svg>
