<svg width="21" height="21" viewBox="0 0 21 21" fill="none" xmlns="http://www.w3.org/2000/svg">
<path d="M9.93668 0.931514C7.55221 0.935511 5.26655 1.88451 3.58048 3.57058C1.8944 5.25666 0.945404 7.54232 0.941406 9.92679C0.943399 12.3133 1.89127 14.6016 3.57735 16.2906C5.26342 17.9795 7.55021 18.9312 9.93668 18.9372C12.0532 18.9372 14.0035 18.1926 15.5455 16.9605L19.291 20.706C19.4808 20.8824 19.7315 20.9785 19.9906 20.9739C20.2496 20.9694 20.4968 20.8646 20.6803 20.6817C20.8637 20.4987 20.9692 20.2518 20.9744 19.9927C20.9796 19.7337 20.8843 19.4827 20.7083 19.2925L16.9628 15.5432C18.242 13.9522 18.9394 11.972 18.9395 9.93057C18.9395 4.97183 14.8954 0.931514 9.93668 0.931514ZM9.93668 2.93466C13.8145 2.93466 16.9364 6.05277 16.9364 9.92679C16.9364 13.8008 13.8145 16.9378 9.93668 16.9378C6.05889 16.9378 2.94078 13.8121 2.94078 9.93435C2.94078 6.05655 6.05889 2.93466 9.93668 2.93466Z" fill="#202224"/>
</svg>
