<svg width="22" height="22" viewBox="0 0 22 22" fill="none" xmlns="http://www.w3.org/2000/svg">
<path d="M6.65225 5.68013L5.29856 4.32644L5.29238 4.32231C5.42163 4.0535 5.5 3.75581 5.5 3.4375C5.5 2.30037 4.57463 1.375 3.4375 1.375C2.30037 1.375 1.375 2.30037 1.375 3.4375C1.375 4.57463 2.30037 5.5 3.4375 5.5C3.75513 5.5 4.0535 5.42163 4.32231 5.29238L4.32644 5.29856L5.68013 6.65225C5.97094 6.29681 6.29681 5.97094 6.65225 5.68013ZM18.5625 16.5C18.2442 16.5 17.9465 16.5784 17.6777 16.7076L17.6736 16.7014L16.3199 15.3477C16.0291 15.7032 15.7032 16.0291 15.3477 16.3199L16.7014 17.6736L16.7076 17.6777C16.5727 17.9532 16.5018 18.2557 16.5 18.5625C16.5 19.6996 17.4254 20.625 18.5625 20.625C19.6996 20.625 20.625 19.6996 20.625 18.5625C20.625 17.4254 19.6996 16.5 18.5625 16.5ZM17.1875 11C17.1875 7.58862 14.4121 4.8125 11 4.8125C7.58794 4.8125 4.8125 7.58862 4.8125 11C4.8125 14.4114 7.58794 17.1875 11 17.1875C14.4121 17.1875 17.1875 14.4114 17.1875 11ZM12.2416 14.9758L11.4441 15.6496C11.3202 15.755 11.1627 15.8129 11 15.8129C10.8373 15.8129 10.6798 15.755 10.5559 15.6496L9.75906 14.9758C7.87187 13.3788 6.875 11.2908 6.875 8.9375C6.875 8.65631 7.04619 8.404 7.30744 8.29881L10.7449 6.92381C10.9086 6.85919 11.0914 6.85919 11.2551 6.92381L14.6926 8.29881C14.9538 8.404 15.125 8.65631 15.125 8.9375C15.125 11.2908 14.1281 13.3788 12.2416 14.9758Z" fill="#4F4F4F"/>
<path d="M12.5131 9.2125L10.9264 11.3286L10.1117 10.5139C10.0483 10.4483 9.97242 10.3959 9.88854 10.3599C9.80466 10.3238 9.71445 10.3049 9.62316 10.3041C9.53188 10.3033 9.44135 10.3207 9.35686 10.3552C9.27236 10.3898 9.1956 10.4409 9.13105 10.5054C9.0665 10.57 9.01545 10.6467 8.98088 10.7312C8.94632 10.8157 8.92892 10.9062 8.92971 10.9975C8.93051 11.0888 8.94947 11.179 8.9855 11.2629C9.02153 11.3468 9.07391 11.4226 9.13957 11.4861L10.5146 12.8611C10.5842 12.9308 10.6679 12.9848 10.7602 13.0193C10.8525 13.0538 10.9511 13.068 11.0494 13.0611C11.1477 13.0541 11.2433 13.026 11.3298 12.9788C11.4163 12.9316 11.4916 12.8664 11.5506 12.7875L13.6131 10.0375C13.7225 9.89163 13.7695 9.70828 13.7437 9.52777C13.7179 9.34727 13.6215 9.1844 13.4756 9.075C13.4034 9.02083 13.3212 8.98142 13.2338 8.95901C13.1463 8.9366 13.0553 8.93164 12.9659 8.94441C12.7854 8.9702 12.6225 9.06663 12.5131 9.2125Z" fill="#4F4F4F"/>
</svg>
