<svg width="22" height="22" viewBox="0 0 22 22" fill="none" xmlns="http://www.w3.org/2000/svg">
<path d="M16.9575 3.76714L12.3833 2.05297C11.6225 1.7688 10.3758 1.7688 9.615 2.05297L5.04083 3.76714C3.98667 4.1613 3.125 5.40797 3.125 6.5263V13.3371C3.125 14.4188 3.84 15.8396 4.71083 16.4905L8.6525 19.433C9.945 20.4046 12.0717 20.4046 13.3642 19.433L17.3058 16.4905C18.1767 15.8396 18.8917 14.4188 18.8917 13.3371V6.5263C18.8733 5.40797 18.0117 4.1613 16.9575 3.76714ZM10.935 6.4438C12.0167 6.4438 12.8967 7.3238 12.8967 8.40547C12.8967 9.4688 12.0625 10.3213 11.0083 10.358H10.99H10.9717C10.9533 10.358 10.935 10.358 10.9167 10.358C9.81667 10.3213 8.99167 9.4688 8.99167 8.40547C8.9825 7.3238 9.8625 6.4438 10.935 6.4438ZM13.0067 14.9963C12.4475 15.363 11.7233 15.5555 10.9992 15.5555C10.275 15.5555 9.54167 15.3721 8.99167 14.9963C8.46917 14.648 8.185 14.1713 8.17583 13.6488C8.17583 13.1355 8.46917 12.6405 8.99167 12.2921C10.1008 11.5588 11.9067 11.5588 13.0158 12.2921C13.5383 12.6405 13.8317 13.1171 13.8317 13.6396C13.8225 14.153 13.5292 14.648 13.0067 14.9963Z" fill="#4F4F4F"/>
</svg>
