<svg width="22" height="22" viewBox="0 0 22 22" fill="none" xmlns="http://www.w3.org/2000/svg">
<path d="M16.8034 5.2001L6.04172 15.9618C5.63839 16.3651 4.96005 16.3101 4.63005 15.8334C3.49339 14.1743 2.82422 12.2126 2.82422 10.1959V6.17177C2.82422 5.4201 3.39255 4.5676 4.08922 4.28344L9.19505 2.19344C10.3501 1.71677 11.6334 1.71677 12.7884 2.19344L16.5009 3.70594C17.1059 3.95344 17.2617 4.74177 16.8034 5.2001Z" fill="white"/>
<path d="M17.6638 6.45153C18.2597 5.94736 19.1672 6.3782 19.1672 7.15736V10.1915C19.1672 14.674 15.913 18.8724 11.4672 20.1007C11.1647 20.1832 10.8347 20.1832 10.523 20.1007C9.22135 19.734 8.01135 19.1199 6.97551 18.3132C6.53551 17.974 6.48968 17.3324 6.87468 16.9382C8.87301 14.894 14.7213 8.9357 17.6638 6.45153Z" fill="white"/>
</svg>
