<svg width="22" height="22" viewBox="0 0 22 22" fill="none" xmlns="http://www.w3.org/2000/svg">
<path d="M15.0442 4.69287L7.28228 9.17537L9.80128 10.6294L17.5632 6.14762L15.0442 4.69287ZM12.5142 3.23262L9.97281 1.7648C9.92056 1.73463 9.86128 1.71875 9.80094 1.71875C9.7406 1.71875 9.68132 1.73463 9.62906 1.7648L2.03906 6.14727L4.75366 7.71477L12.5142 3.23262ZM5.11941 10.6676L6.27441 11.3345V9.38643L5.11941 8.71955V10.6676ZM15.8107 10.6566C16.525 10.6567 17.2315 10.8062 17.8846 11.0956V6.7564L10.1447 11.2265V20.1365L11.8755 19.1369C11.0869 18.2089 10.6541 17.0307 10.6545 15.8128C10.6545 12.9697 12.9676 10.6566 15.8107 10.6566ZM6.59547 8.77799L14.3563 4.29618L13.202 3.6293L5.44081 8.11146L6.59547 8.77799Z" fill="#4F4F4F"/>
<path d="M6.96334 11.9291C6.96334 11.9894 6.94746 12.0487 6.91729 12.1009C6.88712 12.1532 6.84372 12.1966 6.79147 12.2268C6.73921 12.2569 6.67993 12.2728 6.61959 12.2728C6.55925 12.2728 6.49998 12.2569 6.44772 12.2267L4.60556 11.1632C4.55326 11.133 4.50983 11.0895 4.47966 11.0372C4.44948 10.9849 4.43363 10.9256 4.43369 10.8652V8.32209L1.71875 6.75391V15.4683C1.71875 15.5287 1.73464 15.5879 1.76481 15.6402C1.79498 15.6924 1.83837 15.7358 1.89063 15.766L9.45897 20.1357V11.224L6.96334 9.78269V11.9291ZM9.09356 17.4909C9.04798 17.5699 8.9729 17.6275 8.88484 17.6511C8.79678 17.6747 8.70295 17.6623 8.624 17.6167L6.23219 16.2356C6.15388 16.1897 6.09691 16.1146 6.07371 16.0269C6.0505 15.9391 6.06296 15.8457 6.10834 15.7671C6.15373 15.6885 6.22837 15.6311 6.31597 15.6073C6.40357 15.5835 6.49703 15.5953 6.57594 15.6402L8.96775 17.0214C9.0467 17.067 9.10431 17.142 9.1279 17.2301C9.1515 17.3182 9.13915 17.412 9.09356 17.4909ZM9.09356 16.1159C9.04798 16.1949 8.9729 16.2525 8.88484 16.2761C8.79678 16.2997 8.70295 16.2873 8.624 16.2417L6.23219 14.8606C6.15388 14.8147 6.09691 14.7396 6.07371 14.6519C6.0505 14.5641 6.06296 14.4707 6.10834 14.3921C6.15373 14.3135 6.22837 14.2561 6.31597 14.2323C6.40357 14.2085 6.49703 14.2203 6.57594 14.2652L8.96775 15.6464C9.0467 15.692 9.10431 15.767 9.1279 15.8551C9.1515 15.9432 9.13915 16.037 9.09356 16.1159ZM15.4688 17.8746H16.1566V18.5621H15.4688V17.8746ZM15.4361 16.1558H16.1886L16.4636 13.4058H15.1611L15.4361 16.1558Z" fill="#4F4F4F"/>
<path d="M20.2668 19.8388L19.7113 17.9877C20.0843 17.3234 20.2805 16.5744 20.2812 15.8125C20.2812 13.3485 18.2765 11.3438 15.8125 11.3438C13.3485 11.3438 11.3438 13.3485 11.3438 15.8125C11.3438 18.2765 13.3485 20.2812 15.8125 20.2812C16.7413 20.2812 17.6241 20.0001 18.3803 19.4659L19.7708 20.2379C19.8306 20.2707 19.8987 20.285 19.9666 20.279C20.0345 20.273 20.0991 20.247 20.1522 20.2043C20.2054 20.1615 20.2446 20.104 20.265 20.0389C20.2854 19.9739 20.286 19.9043 20.2668 19.8388ZM16.8438 18.5625C16.8438 18.9417 16.5354 19.25 16.1562 19.25H15.4688C15.0896 19.25 14.7812 18.9417 14.7812 18.5625V17.875C14.7812 17.4958 15.0896 17.1875 15.4688 17.1875H16.1562C16.5354 17.1875 16.8438 17.4958 16.8438 17.875V18.5625ZM16.873 16.225C16.8564 16.3948 16.7771 16.5522 16.6506 16.6667C16.5241 16.7811 16.3595 16.8442 16.1889 16.8438H15.4361C15.2654 16.8442 15.1007 16.781 14.9742 16.6664C14.8477 16.5518 14.7685 16.3942 14.752 16.2243L14.477 13.4747C14.4676 13.3791 14.4782 13.2826 14.5083 13.1914C14.5384 13.1003 14.5872 13.0164 14.6516 12.9452C14.716 12.874 14.7947 12.817 14.8824 12.7781C14.9701 12.7391 15.0651 12.7189 15.1611 12.7188H16.4639C16.5599 12.7189 16.6549 12.7392 16.7426 12.7782C16.8304 12.8172 16.909 12.8742 16.9734 12.9454C17.0378 13.0166 17.0866 13.1005 17.1167 13.1917C17.1468 13.2829 17.1574 13.3794 17.148 13.475L16.873 16.225Z" fill="#4F4F4F"/>
</svg>
