<svg width="22" height="22" viewBox="0 0 22 22" fill="none" xmlns="http://www.w3.org/2000/svg">
<path d="M16.9947 3.82275L11.9531 1.93441C11.4306 1.74191 10.5781 1.74191 10.0556 1.93441L5.01391 3.82275C4.04224 4.18941 3.25391 5.32608 3.25391 6.36191V13.7869C3.25391 14.5294 3.73974 15.5102 4.33557 15.9502L9.37724 19.7177C10.2664 20.3869 11.7239 20.3869 12.6131 19.7177L17.6547 15.9502C18.2506 15.5011 18.7364 14.5294 18.7364 13.7869V6.36191C18.7456 5.32608 17.9572 4.18941 16.9947 3.82275ZM11.6872 11.7977V14.2086C11.6872 14.5844 11.3756 14.8961 10.9997 14.8961C10.6239 14.8961 10.3122 14.5844 10.3122 14.2086V11.7977C9.38641 11.5044 8.70807 10.6427 8.70807 9.62525C8.70807 8.36025 9.73474 7.33358 10.9997 7.33358C12.2647 7.33358 13.2914 8.36025 13.2914 9.62525C13.2914 10.6519 12.6131 11.5044 11.6872 11.7977Z" fill="#4F4F4F"/>
</svg>
