<svg width="32" height="32" viewBox="0 0 32 32" fill="none" xmlns="http://www.w3.org/2000/svg">
<path d="M17 28C23.6274 28 29 22.6274 29 16C29 9.37258 23.6274 4 17 4C10.3726 4 5 9.37258 5 16C5 22.6274 10.3726 28 17 28Z" stroke="#4F4F4F" stroke-width="2" stroke-linecap="round" stroke-linejoin="round"/>
<path d="M12.5 14C13.3284 14 14 13.3284 14 12.5C14 11.6716 13.3284 11 12.5 11C11.6716 11 11 11.6716 11 12.5C11 13.3284 11.6716 14 12.5 14Z" fill="#4F4F4F"/>
<path d="M21.5 14C22.3284 14 23 13.3284 23 12.5C23 11.6716 22.3284 11 21.5 11C20.6716 11 20 11.6716 20 12.5C20 13.3284 20.6716 14 21.5 14Z" fill="#4F4F4F"/>
<path d="M22.4 19C21.8714 19.9107 21.1128 20.6667 20.2002 21.1922C19.2876 21.7176 18.2531 21.9942 17.2 21.9942C16.1469 21.9942 15.1124 21.7176 14.1998 21.1922C13.2872 20.6667 12.5286 19.9107 12 19" stroke="#4F4F4F" stroke-width="2" stroke-linecap="round" stroke-linejoin="round"/>
</svg>
