<svg width="22" height="22" viewBox="0 0 22 22" fill="none" xmlns="http://www.w3.org/2000/svg">
<path d="M5.5013 11.917C2.9713 11.917 0.917969 13.9612 0.917969 16.5003C0.917969 19.0395 2.9713 21.0837 5.5013 21.0837C8.0313 21.0837 10.0846 19.0303 10.0846 16.5003C10.0846 13.9703 8.04047 11.917 5.5013 11.917ZM3.6313 14.6303H5.5013C5.84964 14.6303 6.12464 14.9145 6.12464 15.2537C6.12464 15.5928 5.84964 15.877 5.5013 15.877H3.6313C3.28297 15.877 3.00797 15.5928 3.00797 15.2537C3.00797 14.9145 3.28297 14.6303 3.6313 14.6303ZM7.3713 18.3703H3.6313C3.28297 18.3703 3.00797 18.0862 3.00797 17.747C3.00797 17.4078 3.29214 17.1237 3.6313 17.1237H7.38047C7.7288 17.1237 8.0038 17.4078 8.0038 17.747C8.0038 18.0862 7.71964 18.3703 7.3713 18.3703Z" fill="#4F4F4F"/>
<path d="M15.582 2.75H6.41536C3.66536 2.75 1.83203 4.125 1.83203 7.33333V10.2117C1.83203 10.8808 2.51953 11.3025 3.1337 11.0367C4.14203 10.5967 5.28786 10.4317 6.4887 10.6242C8.89036 11.0183 10.852 12.9158 11.3379 15.2992C11.4754 15.9958 11.4937 16.6742 11.402 17.325C11.3287 17.8658 11.7687 18.3425 12.3095 18.3425H15.582C18.332 18.3425 20.1654 16.9675 20.1654 13.7592V7.33333C20.1654 4.125 18.332 2.75 15.582 2.75ZM16.0129 7.87417L13.1437 10.1658C12.5387 10.6517 11.7687 10.89 10.9987 10.89C10.2287 10.89 9.44953 10.6517 8.8537 10.1658L5.98453 7.87417C5.6912 7.63583 5.64536 7.19583 5.87453 6.9025C6.11286 6.60917 6.5437 6.55417 6.83703 6.7925L9.7062 9.08417C10.4029 9.64333 11.5854 9.64333 12.282 9.08417L15.1512 6.7925C15.4445 6.55417 15.8845 6.6 16.1137 6.9025C16.352 7.19583 16.3062 7.63583 16.0129 7.87417Z" fill="#4F4F4F"/>
</svg>
