<svg width="80" height="77" viewBox="0 0 80 77" fill="none" xmlns="http://www.w3.org/2000/svg">
<g filter="url(#filter0_d_1469_140296)">
<rect x="15" y="8" width="50" height="50" rx="25" fill="#5678E9"/>
</g>
<path d="M47.1197 30.1194C46.7297 30.1194 46.4197 30.4294 46.4197 30.8194V32.3994C46.4197 35.9394 43.5397 38.8194 39.9997 38.8194C36.4597 38.8194 33.5797 35.9394 33.5797 32.3994V30.8094C33.5797 30.4194 33.2697 30.1094 32.8797 30.1094C32.4897 30.1094 32.1797 30.4194 32.1797 30.8094V32.3894C32.1797 36.4594 35.3097 39.8094 39.2997 40.1694V42.2994C39.2997 42.6894 39.6097 42.9994 39.9997 42.9994C40.3897 42.9994 40.6997 42.6894 40.6997 42.2994V40.1694C44.6797 39.8194 47.8197 36.4594 47.8197 32.3894V30.8094C47.8097 30.4294 47.4997 30.1194 47.1197 30.1194Z" fill="white"/>
<path d="M39.9981 23C37.5581 23 35.5781 24.98 35.5781 27.42V32.54C35.5781 34.98 37.5581 36.96 39.9981 36.96C42.4381 36.96 44.4181 34.98 44.4181 32.54V27.42C44.4181 24.98 42.4381 23 39.9981 23ZM41.3081 29.95C41.2381 30.21 41.0081 30.38 40.7481 30.38C40.6981 30.38 40.6481 30.37 40.5981 30.36C40.2081 30.25 39.7981 30.25 39.4081 30.36C39.0881 30.45 38.7781 30.26 38.6981 29.95C38.6081 29.64 38.7981 29.32 39.1081 29.24C39.6981 29.08 40.3181 29.08 40.9081 29.24C41.2081 29.32 41.3881 29.64 41.3081 29.95ZM41.8381 28.01C41.7481 28.25 41.5281 28.39 41.2881 28.39C41.2181 28.39 41.1581 28.38 41.0881 28.36C40.3881 28.1 39.6081 28.1 38.9081 28.36C38.6081 28.47 38.2681 28.31 38.1581 28.01C38.0481 27.71 38.2081 27.37 38.5081 27.27C39.4681 26.92 40.5281 26.92 41.4881 27.27C41.7881 27.38 41.9481 27.71 41.8381 28.01Z" fill="white"/>
<defs>
<filter id="filter0_d_1469_140296" x="0" y="0" width="80" height="80" filterUnits="userSpaceOnUse" color-interpolation-filters="sRGB">
<feFlood flood-opacity="0" result="BackgroundImageFix"/>
<feColorMatrix in="SourceAlpha" type="matrix" values="0 0 0 0 0 0 0 0 0 0 0 0 0 0 0 0 0 0 127 0" result="hardAlpha"/>
<feOffset dy="7"/>
<feGaussianBlur stdDeviation="7.5"/>
<feComposite in2="hardAlpha" operator="out"/>
<feColorMatrix type="matrix" values="0 0 0 0 0 0 0 0 0 0 0 0 0 0 0 0 0 0 0.05 0"/>
<feBlend mode="normal" in2="BackgroundImageFix" result="effect1_dropShadow_1469_140296"/>
<feBlend mode="normal" in="SourceGraphic" in2="effect1_dropShadow_1469_140296" result="shape"/>
</filter>
</defs>
</svg>
