<svg width="20" height="21" viewBox="0 0 20 21" fill="none" xmlns="http://www.w3.org/2000/svg">
<g clip-path="url(#clip0_11935_30599)">
<path d="M20.0006 4.98717V4.33203H17.1836V4.98717H18.2645V16.0117H17.1836V16.6668H20.0006V16.0117H18.9197V4.98717H20.0006Z" fill="#A7A7A7"/>
<path d="M0.121549 14.0003L3.41859 6.55479C3.64846 6.04137 4.0672 5.73047 4.6349 5.73047H4.75651C5.32385 5.73047 5.72936 6.04131 5.959 6.55479L9.25616 14.0003C9.32372 14.149 9.36436 14.284 9.36436 14.4192C9.36436 14.9732 8.93191 15.4191 8.37785 15.4191C7.89142 15.4191 7.56706 15.1354 7.37794 14.7029L6.74292 13.2166H2.58098L1.91884 14.7706C1.74314 15.1759 1.3919 15.4191 0.959451 15.4191C0.418746 15.4191 0 14.9867 0 14.4462C0 14.2976 0.0539824 14.149 0.121549 14.0003ZM5.97264 11.3789L4.66183 8.25741L3.35114 11.3789H5.97264ZM10.3502 13.2571V13.23C10.3502 11.6491 11.5529 10.9194 13.269 10.9194C13.9987 10.9194 14.5258 11.041 15.0393 11.2167V11.0951C15.0393 10.2437 14.5122 9.77086 13.4852 9.77086C12.9177 9.77086 12.4583 9.85189 12.0664 9.97355C11.9449 10.0141 11.8637 10.0275 11.769 10.0275C11.2962 10.0275 10.9178 9.66271 10.9178 9.18981C10.9178 8.82493 11.1475 8.51415 11.4717 8.39248C12.1203 8.14927 12.8231 8.01413 13.7825 8.01413C14.904 8.01413 15.7148 8.31139 16.2283 8.82487C16.7688 9.36534 17.012 10.1627 17.012 11.1356V14.4326C17.012 14.9867 16.5661 15.4191 16.0121 15.4191C15.4175 15.4191 15.0257 15.0002 15.0257 14.5678V14.5542C14.5257 15.1082 13.8364 15.4731 12.8366 15.4731C11.4717 15.4732 10.3502 14.6895 10.3502 13.2571ZM15.0661 12.7841V12.4193C14.7148 12.2572 14.2554 12.149 13.7555 12.149C12.877 12.149 12.3366 12.5004 12.3366 13.1489V13.176C12.3366 13.73 12.7961 14.0543 13.4581 14.0543C14.4175 14.0543 15.0661 13.5274 15.0661 12.7841Z" fill="#A7A7A7"/>
</g>
<defs>
<clipPath id="clip0_11935_30599">
<rect width="20" height="20" fill="white" transform="translate(0 0.5)"/>
</clipPath>
</defs>
</svg>
